# xmcd
#
# Track frame offsets: 
#        150
#        20142
#        33391
#        45206
#        60948
#        72791
#        87755
#        101672
#        118906
#        132434
#        146451
#        164470
#        176941
#        193261
#
# Disc length: 2798 seconds
#
# Revision: 0
# Processed by: cddbd v1.5.1PL0 Copyright (c) Steve Scherf et al.
# Submitted via: ExactAudioCopy v0.95a5
#
DISCID=c50aec0e
DTITLE=Various Artist - Ribeirão Rodeo Festival (Tony Sorriso)
DYEAR=1997
DGENRE=Country
TTITLE0=Oração De Rodeio
TTITLE1=Rei Do Gado
TTITLE2=Dia De Folga
TTITLE3=Chega
TTITLE4=Saideira
TTITLE5=Loira Do Carro Branco
TTITLE6=Você É Tudo Que Pedi Pra Deus
TTITLE7=De Mal Com Você
TTITLE8=Berrante De Madalena
TTITLE9=Apaixonei De Novo
TTITLE10=Fruto Especial
TTITLE11=Dê Amor Para Quem Te Ama
TTITLE12=Ferreirinha
TTITLE13=Preto Velho
EXTD=
EXTT0=
EXTT1=
EXTT2=
EXTT3=
EXTT4=
EXTT5=
EXTT6=
EXTT7=
EXTT8=
EXTT9=
EXTT10=
EXTT11=
EXTT12=
EXTT13=
PLAYORDER=
